<svg width="12" height="18" viewBox="0 0 12 18" fill="none" xmlns="http://www.w3.org/2000/svg">
<g clip-path="url(#clip0_1203_811)">
<path fill-rule="evenodd" clip-rule="evenodd" d="M1.04265 5.95173C1.23885 5.75559 1.50492 5.6454 1.78235 5.6454C2.05977 5.6454 2.32584 5.75559 2.52204 5.95173L5.96732 9.39701L9.4126 5.95173C9.50911 5.8518 9.62456 5.7721 9.7522 5.71727C9.87985 5.66243 10.0171 5.63357 10.1561 5.63236C10.295 5.63116 10.4327 5.65763 10.5613 5.71023C10.6899 5.76284 10.8067 5.84053 10.905 5.93876C11.0032 6.037 11.0809 6.15381 11.1335 6.28239C11.1861 6.41097 11.2126 6.54874 11.2113 6.68766C11.2101 6.82658 11.1813 6.96387 11.1264 7.09151C11.0716 7.21916 10.9919 7.3346 10.892 7.43112L6.70701 11.6161C6.51081 11.8122 6.24474 11.9224 5.96732 11.9224C5.68989 11.9224 5.42382 11.8122 5.22762 11.6161L1.04265 7.43112C0.846514 7.23492 0.736328 6.96885 0.736328 6.69142C0.736328 6.414 0.846514 6.14793 1.04265 5.95173Z" fill="black"/>
</g>
<defs>
<clipPath id="clip0_1203_811">
<rect width="10.4751" height="16.7525" fill="white" transform="translate(0.736328 0.401123)"/>
</clipPath>
</defs>
</svg>
